<svg width="9" height="10" viewBox="0 0 9 10" fill="none" xmlns="http://www.w3.org/2000/svg">
<path d="M2.99335 10H1.95735V7.802H0.571352V6.92H1.95735V5.618H0.571352V4.736H1.95735V0.199999H5.86335C6.82468 0.199999 7.58068 0.442666 8.13135 0.928C8.69135 1.41333 8.97135 2.06667 8.97135 2.888C8.97135 3.71867 8.69602 4.38133 8.14535 4.876C7.59469 5.37067 6.83402 5.618 5.86335 5.618H2.99335V6.92H7.06735V7.802H2.99335V10ZM2.99335 1.138V4.736H5.77935C6.47935 4.736 7.01602 4.582 7.38935 4.274C7.76269 3.966 7.94935 3.52267 7.94935 2.944C7.94935 2.37467 7.75802 1.93133 7.37535 1.614C7.00202 1.29667 6.47002 1.138 5.77935 1.138H2.99335Z" fill="#C41C1B"/>
</svg>
