<svg width="19" height="19" viewBox="0 0 19 19" fill="none" xmlns="http://www.w3.org/2000/svg">
<path d="M9.06858 0.630015C9.19596 0.200663 9.80404 0.200663 9.93142 0.630014L11.7033 6.60273C11.7726 6.83618 11.9871 6.9963 12.2306 6.9963H18.0547C18.4807 6.9963 18.6682 7.5332 18.3349 7.79843L13.5472 11.6082C13.3717 11.7479 13.2986 11.98 13.3624 12.195L15.1723 18.296C15.2975 18.7179 14.8051 19.0501 14.4607 18.7761L9.84246 15.1012C9.64201 14.9417 9.35799 14.9417 9.15754 15.1012L4.5393 18.7761C4.19494 19.0501 3.70252 18.7179 3.82769 18.296L5.63764 12.195C5.70142 11.98 5.62829 11.7479 5.45282 11.6082L0.665066 7.79843C0.331753 7.5332 0.5193 6.9963 0.945262 6.9963H6.7694C7.01291 6.9963 7.22743 6.83618 7.29668 6.60273L9.06858 0.630015Z" fill="#FFF057" stroke="#C4C4C4" stroke-width="0.1"/>
</svg>
